<svg width="150" height="150" viewBox="0 0 150 150" xmlns="http://www.w3.org/2000/svg">
  <!-- QR Code Pattern -->
  <rect width="150" height="150" fill="white"/>
  
  <!-- Large corner squares -->
  <rect x="10" y="10" width="35" height="35" fill="black"/>
  <rect x="15" y="15" width="25" height="25" fill="white"/>
  <rect x="20" y="20" width="15" height="15" fill="black"/>
  
  <rect x="105" y="10" width="35" height="35" fill="black"/>
  <rect x="110" y="15" width="25" height="25" fill="white"/>
  <rect x="115" y="20" width="15" height="15" fill="black"/>
  
  <rect x="10" y="105" width="35" height="35" fill="black"/>
  <rect x="15" y="110" width="25" height="25" fill="white"/>
  <rect x="20" y="115" width="15" height="15" fill="black"/>

  <!-- Timing patterns -->
  <rect x="50" y="10" width="5" height="5" fill="black"/>
  <rect x="60" y="10" width="5" height="5" fill="black"/>
  <rect x="70" y="10" width="5" height="5" fill="black"/>
  <rect x="80" y="10" width="5" height="5" fill="black"/>
  <rect x="90" y="10" width="5" height="5" fill="black"/>

  <rect x="10" y="50" width="5" height="5" fill="black"/>
  <rect x="10" y="60" width="5" height="5" fill="black"/>
  <rect x="10" y="70" width="5" height="5" fill="black"/>
  <rect x="10" y="80" width="5" height="5" fill="black"/>
  <rect x="10" y="90" width="5" height="5" fill="black"/>

  <!-- Data modules (sample pattern) -->
  <rect x="50" y="50" width="5" height="5" fill="black"/>
  <rect x="55" y="50" width="5" height="5" fill="black"/>
  <rect x="65" y="50" width="5" height="5" fill="black"/>
  <rect x="75" y="50" width="5" height="5" fill="black"/>
  <rect x="50" y="55" width="5" height="5" fill="black"/>
  <rect x="60" y="55" width="5" height="5" fill="black"/>
  <rect x="70" y="55" width="5" height="5" fill="black"/>
  <rect x="80" y="55" width="5" height="5" fill="black"/>
  
  <rect x="50" y="65" width="5" height="5" fill="black"/>
  <rect x="65" y="65" width="5" height="5" fill="black"/>
  <rect x="80" y="65" width="5" height="5" fill="black"/>
  <rect x="55" y="70" width="5" height="5" fill="black"/>
  <rect x="65" y="70" width="5" height="5" fill="black"/>
  <rect x="75" y="70" width="5" height="5" fill="black"/>
  
  <rect x="50" y="80" width="5" height="5" fill="black"/>
  <rect x="60" y="80" width="5" height="5" fill="black"/>
  <rect x="70" y="80" width="5" height="5" fill="black"/>
  <rect x="80" y="80" width="5" height="5" fill="black"/>
  
  <!-- Additional data pattern -->
  <rect x="95" y="50" width="5" height="5" fill="black"/>
  <rect x="100" y="55" width="5" height="5" fill="black"/>
  <rect x="105" y="60" width="5" height="5" fill="black"/>
  <rect x="110" y="65" width="5" height="5" fill="black"/>
  <rect x="115" y="70" width="5" height="5" fill="black"/>
  <rect x="120" y="75" width="5" height="5" fill="black"/>
  <rect x="125" y="80" width="5" height="5" fill="black"/>
  <rect x="130" y="85" width="5" height="5" fill="black"/>
  
  <!-- Bottom area patterns -->
  <rect x="50" y="110" width="5" height="5" fill="black"/>
  <rect x="60" y="110" width="5" height="5" fill="black"/>
  <rect x="70" y="110" width="5" height="5" fill="black"/>
  <rect x="80" y="110" width="5" height="5" fill="black"/>
  <rect x="90" y="110" width="5" height="5" fill="black"/>
  <rect x="100" y="110" width="5" height="5" fill="black"/>
  <rect x="110" y="110" width="5" height="5" fill="black"/>
  <rect x="120" y="110" width="5" height="5" fill="black"/>
  <rect x="130" y="110" width="5" height="5" fill="black"/>
</svg>